<?xml version="1.0" encoding="UTF-8"?>
<!DOCTYPE svg PUBLIC "-//W3C//DTD SVG 1.1//EN" "http://www.w3.org/Graphics/SVG/1.1/DTD/svg11.dtd">
<!-- Creator: CorelDRAW -->
<svg xmlns="http://www.w3.org/2000/svg" xml:space="preserve" width="591.972mm" height="284.497mm" version="1.1" style="shape-rendering:geometricPrecision; text-rendering:geometricPrecision; image-rendering:optimizeQuality; fill-rule:evenodd; clip-rule:evenodd"
viewBox="0 0 22890.93 11001.19"
 xmlns:xlink="http://www.w3.org/1999/xlink">
 <defs>
  <style type="text/css">
   <![CDATA[
    .fil0 {fill:#AF9A5B;fill-rule:nonzero}
   ]]>
  </style>
 </defs>
 <g id="Camada_x0020_1">
  <metadata id="CorelCorpID_0Corel-Layer"/>
  <g id="_105553380363680">
   <path class="fil0" d="M6921.36 8978.21c70.13,-221.6 132.75,-441.8 187.63,-660.59 318.51,-1269.59 528.19,-2549.49 629.05,-3839.71 62.15,-795.43 88.66,-1648.54 79.98,-2559.58 -0.94,-92.63 -6.33,-184.55 -16.42,-275.77 -50.19,-455.16 -256.12,-810.44 -618.02,-1065.8 -186.69,-131.56 -427.57,-204.49 -660.47,-215.27 -348.53,-15.95 -672.43,45.26 -1006.89,154.3 -8.45,2.82 -15.95,-5.86 -12.43,-13.83 3.52,-7.74 8.91,-13.84 15.95,-18.76 538.74,-363.71 1323.29,-635.73 1936.62,-334.87 250.49,122.88 453.37,348.47 591.75,591.41 299.04,525.98 389.34,1156.32 410.45,1757.35 22.28,642.77 33.07,1294.91 31.9,1955.97 -0.24,154.06 -5.16,309.07 -15.24,465.01 -72.48,1125.83 -217.66,2280.99 -435.78,3465.22 -67.55,366.29 -147.06,703.03 -238.77,1010.23 -57.46,192.29 -105.08,332.52 -142.6,420.93 -241.58,567.49 -698.47,876.33 -1311.57,917.6 -47.85,3.28 -79.04,-34.71 -81.62,-79.96 -58.64,-975.76 -306.31,-1907.9 -743.03,-2796.66 -356.5,-725.55 -902.05,-1327.74 -1583.4,-1767.9 -524.9,-339.09 -1142.93,-418.58 -1671.35,-38.69 -359.08,258.18 -501.22,616.5 -571.82,1048.92 -45.97,282.57 -65.91,564.44 -59.57,846.08 0,6.33 6.57,10.55 12.43,7.97 99.21,-43.38 192.56,-100.13 279.58,-170.01 3.28,-2.82 8.21,-2.82 11.49,0.24l11.26 10.08c3.99,3.52 3.99,7.04 0.24,10.79 -291.54,287.5 -1442.68,1318.6 -1764.47,610.4 -36.82,-80.9 -57.7,-156.88 -63.09,-227.93 -2.11,-26.97 5.86,-30.48 24.39,-10.55 72.47,78.79 160.66,136.01 264.56,171.66 11.96,4.22 16.89,0 14.31,-12.66 -271.36,-1389.65 -413.26,-2816.59 -425.69,-4280.57 -7.97,-942.93 52.77,-1849.51 182.24,-2719.74 13.37,-90.28 29.08,-176.11 47.61,-257.48 37.53,-166.03 83.73,-347.77 181.77,-488.93 269.96,-388.33 649.45,-583.91 1138.71,-586.72 527.95,-2.82 1061.54,11.49 1601.23,43.15 465.33,27.2 932.78,122.64 1333.61,355.27 834.27,484.72 1356.36,1329.86 1326.81,2296.7 -10.56,346.83 -48.78,667.16 -114.46,961.45 -37.06,166.03 -102.73,329.47 -197.25,490.58 -239.93,409.67 -589.4,694.83 -1048.64,855.46 -23.92,8.44 -29.08,39.87 -9.38,55.58l426.63 341.67c3.05,2.58 7.51,2.58 10.56,0 1252.92,-1031.1 2124.95,-2469.06 2541.27,-4036.7 14.31,-53.7 43.86,-64.49 88.89,-31.89 3.52,2.58 7.27,5.16 11.02,7.97 45.27,32.59 63.09,76.45 53.01,131.32 -29.79,162.04 -57.93,319.86 -84.43,472.99 -25.57,147.27 -57.47,290.55 -95.23,429.84 -61.68,227.7 -119.85,447.89 -174.5,660.82 -86.78,339.32 -218.59,676.54 -326.95,1000.62 -53,158.29 -110.47,302.98 -172.62,433.83 -92.18,194.4 -181.54,388.56 -267.85,582.03 -190.68,427.26 -442.82,824.5 -744.67,1178.83 -33.07,38.7 -34.01,77.86 -2.82,117.25 503.57,633.86 861.24,1344.86 1072.57,2132.79 43.39,161.57 70.59,333.23 105.78,496.44 10.32,48.07 22.98,48.77 37.76,1.88z"/>
   <path class="fil0" d="M9071.18 1254.69c0,-21.81 17.82,-39.63 39.87,-39.4l268.55 0.94c352.52,1.17 637.25,287.5 636.08,639.48l0 5.63c-1.17,351.99 -288.02,636.44 -640.77,635.26l-268.55 -0.94c-21.81,-0.24 -39.4,-18.05 -39.4,-39.86l4.22 -1201.12zm95.46 69.88l-3.75 1061.82c0,7.97 6.33,14.31 14.3,14.54l191.86 0.47c303.74,1.18 550.71,-240.83 551.88,-540.52l0 -5.16c0.94,-299.69 -244.4,-543.57 -548.13,-544.74l-191.86 -0.47c-7.97,-0.23 -14.31,6.33 -14.31,14.07z"/>
   <path class="fil0" d="M11023.05 1896.99c-6.1,1.64 -8.91,8.68 -6.1,14.3l273.95 527.39c14.78,28.38 6.57,46.67 -24.4,54.4 -2.58,0.7 -4.92,1.17 -7.27,1.88 -27.91,7.03 -48.32,-2.11 -61.68,-27.67l-284.97 -548.5c-3.99,-7.27 -11.49,-11.96 -19.93,-11.96l-299.75 0c-9.15,0 -16.42,7.27 -16.42,16.18l0 532.32c0,22.28 -11.02,34.94 -33.07,37.99l-12.2 1.88c-34.01,4.92 -51.13,-9.85 -51.13,-44.09l0 -1197.36c0,-20.64 16.89,-37.29 37.53,-37.05 120.09,1.64 252.6,1.41 397.55,-0.47 421,-5.39 508.02,566.55 107.89,680.76zm-445.86 -574.76l-1.88 476.51c0,6.57 5.39,11.96 11.72,11.96l344.78 1.17c139.79,0.47 253.31,-110.45 253.78,-247.4l0 -3.28c0.47,-137.18 -112.35,-248.81 -251.9,-249.28l-344.78 -1.17c-6.57,0 -11.73,5.16 -11.73,11.49z"/>
   <path class="fil0" d="M11881.71 2430.25c0,42.44 -34.48,76.92 -76.93,76.92 -42.45,0 -76.93,-34.47 -76.93,-76.92 0,-42.45 34.48,-76.92 76.93,-76.92 42.45,0 76.93,34.47 76.93,76.92z"/>
   <path class="fil0" d="M13522.1 3496.75c-615.68,-385.52 -1377.94,94.97 -1311.33,806.92 29.79,319.39 252.37,601.73 546.48,711.71 206.16,77.15 418.66,72.7 637.26,-12.9 37.06,-14.54 70.36,-32.83 99.68,-54.64 21.81,-16.18 32.6,-10.79 32.83,16.18l0.24 155.71c0,21.57 -9.85,36.81 -29.55,45.49 -431.09,192.52 -898.3,91.22 -1212.12,-250.45 -338.91,-369.34 -369.64,-954.18 -41.75,-1351.19 225.16,-272.49 510.37,-403.34 855.38,-392.79 147.53,4.45 288.72,40.57 423.12,108.1 3.28,1.64 5.16,5.16 5.16,8.68l-0.23 206.36c0,2.58 -2.82,4.22 -5.16,2.82z"/>
   <path class="fil0" d="M22890.93 4216.44c0,578.04 -468.85,1046.81 -1047,1046.81 -578.15,0 -1047,-468.77 -1047,-1046.81 0,-578.05 468.85,-1046.81 1047,-1046.81 578.15,0 1047,468.76 1047,1046.81zm-192.09 0.24c0,-472.29 -382.77,-854.99 -855.14,-854.99 -472.37,0 -855.14,382.71 -855.14,854.99 0,472.28 382.78,854.99 855.14,854.99 472.37,0 855.14,-382.71 855.14,-854.99z"/>
   <path class="fil0" d="M11322.79 5229.25c0,5.39 -4.45,9.85 -9.85,9.85l-170.75 0c-5.39,0 -9.85,-4.45 -9.85,-9.85l0 -2039.22c0,-5.39 4.46,-9.85 9.85,-9.85l170.75 0c5.39,0 9.85,4.45 9.85,9.85l0 2039.22z"/>
   <path class="fil0" d="M10014.04 4311.41c158.79,305.55 318.51,613.92 479.17,924.64 0.23,0.7 -0.24,1.4 -0.94,1.4 -69.19,2.58 -138.14,3.05 -206.63,1.18 -3.75,-0.24 -6.57,-1.88 -8.21,-5.16l-472.84 -910.8c-2.82,-5.16 -8.21,-8.44 -14.07,-8.44l-468.15 0c-5.86,0 -10.55,4.69 -10.55,10.55l0 908.22c0,4.22 -2.11,6.33 -6.57,6.33l-177.55 0c-3.75,0 -5.63,-1.88 -5.63,-5.63l0 -2034.53c0,-5.39 4.22,-9.62 9.62,-9.62 203.35,2.58 406.93,2.11 610.75,-0.94 143.31,-2.11 246.03,9.15 307.72,33.77 500.75,200.27 494.89,902.36 -27.91,1069.09 -10.55,3.52 -13.37,10.08 -8.21,19.93zm-703.39 -917.13l2.34 718.98c0,7.03 5.87,12.66 12.9,12.66l529.6 -1.88c207.34,-0.7 375.03,-167.43 374.33,-372.15l0 -2.82c-0.7,-204.72 -169.57,-370.04 -377.15,-369.34l-529.6 1.88c-6.8,0 -12.43,5.63 -12.43,12.66z"/>
   <path class="fil0" d="M15501.88 4728.82l-800.26 0.24c-2.58,0 -4.69,1.17 -6.1,3.28l-317.8 503.24c-1.41,2.11 -3.52,3.28 -6.1,3.28l-209.45 0.94c-5.87,0 -9.38,-6.33 -6.33,-11.26l1286.7 -2035c1.41,-2.11 3.52,-3.28 6.1,-3.28l241.82 0.24c3.99,0 7.27,3.28 7.27,7.27l0 2034.06c0,3.99 -3.28,7.27 -7.27,7.27l-174.03 0.24c-3.99,0 -7.27,-3.28 -7.27,-7.27l0 -495.97c0,-3.99 -3.28,-7.27 -7.27,-7.27zm-676.19 -202.37c-3.05,4.93 0.47,11.26 6.1,11.26l669.62 -0.47c3.99,0 7.27,-3.28 7.27,-7.27l0.94 -1059.71c0,-7.27 -9.62,-10.08 -13.37,-3.75l-670.56 1059.94z"/>
   <path class="fil0" d="M16725.96 4332.28l0 901.18c0,3.28 -2.82,5.87 -6.1,5.87l-179.66 0c-3.99,0 -5.86,-1.88 -5.86,-5.87l0 -2034.29c0,-4.69 3.99,-8.45 8.68,-8.45 233.84,-0.7 480.34,-0.7 739.75,0 250.02,0.7 481.52,184.56 535.46,430.08 66.85,303.44 -95.46,576.64 -388.87,673.72 -4.93,1.64 -7.04,7.27 -4.69,11.72 158.55,305.79 319.21,615.8 481.75,930.03 0.24,0.7 -0.23,1.41 -0.94,1.41 -69.66,2.11 -138.62,2.58 -207.1,0.94 -3.52,0 -6.1,-1.64 -7.74,-4.69l-471.9 -909.16c-3.28,-6.57 -10.08,-10.55 -17.35,-10.55l-457.36 0c-11.96,0 -18.06,6.1 -18.06,18.06zm0.7 -942.93l-1.41 725.55c0,5.16 4.45,9.62 9.62,9.62l529.13 0.94c208.97,0.24 378.55,-165.79 379.02,-371.21l0 -1.41c0.47,-205.19 -168.64,-371.92 -377.62,-372.15l-529.13 -0.94c-5.39,0 -9.62,4.22 -9.62,9.61z"/>
   <path class="fil0" d="M18612.63 3203.39c0,-7.97 6.33,-14.54 14.54,-14.54l487.62 0.94c567.13,0.94 1026.13,455.64 1025.19,1015.39l0 25.32c-0.94,559.76 -461.58,1012.58 -1028.94,1011.64l-487.62 -0.94c-7.97,0 -14.54,-6.33 -14.54,-14.54l3.75 -2023.27zm188.8 183.38l-2.81 1656.98c0,3.99 3.28,7.51 7.51,7.51l307.72 0.47c461.34,0.7 836.15,-368.17 836.85,-824.04l0 -21.11c0.7,-455.87 -372.69,-825.91 -834.03,-826.85l-307.72 -0.47c-3.99,0 -7.51,3.28 -7.51,7.5z"/>
   <path class="fil0" d="M11258.3 5350.25c3.05,0.23 5.16,2.81 4.92,5.86l-0.47 4.45c-17.83,185.72 -50.19,334.39 -72.24,332.28l-6.57 -0.7c-22.05,-2.11 -25.33,-154.3 -7.51,-340.02l0.47 -4.22c0.23,-3.05 2.81,-5.16 5.86,-4.92l75.52 7.27z"/>
   <path class="fil0" d="M17897.97 6773.9c0,577.81 -468.62,1046.34 -1046.53,1046.34 -577.92,0 -1046.53,-468.53 -1046.53,-1046.34 0,-577.81 468.61,-1046.34 1046.53,-1046.34 577.92,0 1046.53,468.53 1046.53,1046.34zm-79.75 -0.24c0,-533.72 -432.73,-966.38 -966.55,-966.38 -533.82,0 -966.55,432.66 -966.55,966.38 0,533.72 432.73,966.38 966.55,966.38 533.82,0 966.55,-432.66 966.55,-966.38z"/>
   <path class="fil0" d="M11120.15 7749.89c206.64,29.55 381.84,-26.26 525.85,-167.67 163.01,-160.17 187.17,-319.39 185.52,-556 -2.82,-380.13 -2.82,-804.81 0.24,-1273.57 0,-3.52 1.64,-5.39 5.16,-5.39l64.97 -0.24c3.52,0 6.57,3.05 6.57,6.57 -1.64,444.85 -1.41,894.62 1.17,1349.79 0.7,112.8 -11.73,204.96 -37.29,276.71 -80.45,225.83 -294.58,411.55 -532.65,447.19 -279.58,41.98 -507.09,-50.65 -682.29,-278.35 -103.44,-134.6 -129.47,-285.62 -128.76,-458.92 1.88,-450.71 2.11,-896.26 0.7,-1336.42 0,-4.22 2.11,-6.33 6.33,-6.33l69.19 0.47c1.88,0 2.82,0.94 2.82,3.05 3.52,475.1 3.52,909.4 0,1303.12 -1.17,123.11 9.38,218.55 31.19,286.32 66.38,205.42 262.22,378.25 481.28,409.67z"/>
   <path class="fil0" d="M9617.43 7385.25c32.13,-66.13 48.32,-145.39 48.08,-238.02 -0.7,-464.08 -0.47,-923.94 0.94,-1379.1 0.24,-11.72 6.1,-17.82 17.83,-18.06l42.69 -0.7c11.49,-0.24 17.35,5.39 17.35,17.11 -1.64,434.06 -1.17,853.82 1.88,1259.51 0.94,156.88 -10.32,268.74 -33.54,336.04 -98.98,284.21 -365.19,474.39 -673.14,456.34 -3.52,-0.24 -5.16,-1.88 -5.16,-5.39l-0.24 -63.55c0,-4.92 2.58,-7.5 7.74,-7.5 267.14,1.64 459,-117.25 575.57,-356.67z"/>
   <path class="fil0" d="M14046.78 7695.25l0 -1939.09c0,-4.45 2.11,-6.57 6.57,-6.57l64.97 0c4.22,0 6.33,2.11 6.33,6.57l0 2028.43c0,8.21 -4.22,12.43 -12.66,12.43l-97.57 0c-8.68,0 -15.01,-3.75 -19.47,-11.02l-1154.89 -1932.76c-7.97,-13.13 -11.96,-11.96 -11.96,3.28l0 1934.17c0,4.45 -2.11,6.57 -6.57,6.57l-68.95 -0.47c-3.99,0 -5.86,-1.88 -5.86,-5.86l0 -2026.79c0,-9.61 4.93,-14.54 14.54,-14.54l96.4 0c8.68,0 15.01,3.75 19.47,11.02l1158.65 1937.68c7.27,12.43 11.02,11.26 11.02,-3.05z"/>
   <path class="fil0" d="M15044.76 7789.05c0,4.45 -3.52,7.97 -7.97,7.97l-65.2 0c-4.45,0 -7.97,-3.52 -7.97,-7.97l0 -2031.24c0,-4.46 3.52,-7.97 7.97,-7.97l65.2 0c4.45,0 7.97,3.52 7.97,7.97l0 2031.24z"/>
   <path class="fil0" d="M19441.5 6829.94l495.82 954.19c3.05,5.86 -1.17,12.9 -7.74,12.9l-59.57 0.24c-10.08,0.23 -17.36,-4.22 -21.81,-13.13l-495.12 -953.01c-4.45,-8.68 -11.49,-12.9 -21.11,-12.9l-589.64 0c-8.45,0 -12.67,4.22 -12.67,12.66l0.47 960.52c0,3.52 -1.64,5.16 -4.93,5.16l-70.6 0c-2.58,0 -3.75,-1.41 -3.75,-3.99l0 -2035.94c0,-3.52 2.82,-6.33 6.33,-6.33 257.3,-1.64 505.67,-1.41 745.61,0.7 117.74,1.17 226.1,45.96 324.84,134.37 335.4,299.92 172.15,870 -277.7,928.15 -10.55,1.41 -13.37,6.8 -8.44,16.41zm-711.14 -990.76l-1.41 888.29c0,7.04 5.63,12.9 12.9,12.9l623.42 1.17c254.95,0.47 462.05,-203.08 462.52,-454.7l0 -3.28c0.47,-251.39 -205.93,-455.64 -461.11,-456.1l-623.42 -1.18c-7.03,0 -12.9,5.87 -12.9,12.9z"/>
   <path class="fil0" d="M292.47 8735.97c153.16,105.29 314.52,159.46 500.75,117.25 105.31,-23.68 203.35,-57.45 294.12,-101.07 359.08,-172.36 675.25,-424.45 948.49,-756.74 4.22,-5.16 12.2,-5.63 16.89,-0.94l13.84 13.6c4.93,4.45 5.39,12.19 1.41,17.59 -204.99,285.39 -424.52,540.29 -658.6,764.47 -138.38,132.73 -309.36,267.57 -486.44,340.5 -174.97,71.99 -327.19,49.95 -456.65,-66.13 -92.88,-83.25 -159.26,-186.43 -199.36,-309.54 -10.09,-31.42 -1.64,-37.75 25.56,-18.99z"/>
   <path class="fil0" d="M460.87 9269.93c290.36,155.94 553.29,60.74 802.6,-109.98 326.01,-223.01 596.68,-511.91 811.75,-866.71 3.99,-6.57 9.62,-8.21 16.65,-4.93l15.72 7.27c7.51,3.52 10.32,12.43 6.57,19.7 -183.18,349.41 -786.66,1404.19 -1270.76,1323.05 -189.27,-31.65 -340.09,-195.57 -420.3,-363.71 -2.58,-5.39 1.17,-11.96 7.27,-11.96 10.79,-0.24 20.88,2.34 30.49,7.27z"/>
   <path class="fil0" d="M22081.28 8375.31c0,4.93 -3.99,8.91 -8.91,8.91l-13195.86 0c-4.93,0 -8.91,-3.99 -8.91,-8.91l0 -52.06c0,-4.92 3.99,-8.91 8.91,-8.91l13195.86 0c4.93,0 8.91,3.99 8.91,8.91l0 52.06z"/>
   <path class="fil0" d="M14475.76 8676.64c-5.86,5.39 -12.43,9.85 -19.93,12.9 -6.8,3.05 -13.37,2.34 -19.23,-2.58 -9.38,-7.74 -15.48,-17.12 -18.53,-28.38 -2.11,-8.21 0.24,-14.54 7.27,-19.23 43.86,-28.61 88.89,-30.95 135.1,-7.27 22.28,11.49 44.57,10.32 66.85,-3.98 11.96,-7.74 22.05,-5.87 30.49,5.63l6.57 8.91c9.38,12.9 7.27,23.45 -6.33,31.89 -57.23,35.17 -97.8,16.18 -153.86,-3.99 -10.55,-3.75 -20.17,-1.64 -28.38,6.1z"/>
   <path class="fil0" d="M2171.39 8665.85c-128.53,344.01 -273.24,671.61 -453.61,970.37 -111.41,184.55 -333.99,492.92 -578.38,513.79 -201.01,16.88 -400.37,-132.73 -504.03,-297.11 -9.62,-15.24 -5.63,-20.17 11.49,-15.24 193.26,55.81 353.93,73.17 540.39,-29.55 77.87,-42.91 146.83,-90.28 206.87,-141.87 317.57,-273.66 562.9,-613.92 736,-1020.78 3.28,-7.74 8.68,-9.85 16.18,-6.33l16.89 7.27c7.51,3.28 11.02,11.96 8.21,19.46z"/>
   <path class="fil0" d="M8949.45 9118.67c84.2,67.77 203.58,57.22 276.53,-24.39 6.8,-7.5 17.83,-8.91 26.04,-3.28l21.81 14.78c13.37,8.91 14.54,19.23 3.52,30.72 -154.8,164.15 -493.01,81.37 -469.09,-182.91 22.52,-246.46 315.93,-315.17 472.84,-146.8 7.27,7.97 6.8,15.24 -1.64,22.04l-27.68 22.05c-7.97,6.33 -15.48,5.86 -22.51,-1.64 -209.45,-222.78 -492.07,98.73 -279.81,269.44z"/>
   <path class="fil0" d="M13210.86 9026.99l-125.01 -0.24c-5.63,0 -8.45,-2.82 -8.45,-8.44l0 -31.89c0,-9.61 4.69,-14.3 14.31,-14.3l193.73 0c10.32,0 15.25,5.16 14.54,15.48 -9.38,140.7 -81.85,217.85 -217.19,231.22 -77.87,7.74 -145.65,-8.44 -203.35,-49.01 -106.72,-75.04 -132.05,-224.65 -65.91,-332.99 97.81,-160.87 324.14,-150.31 452.43,-30.49 5.39,4.93 5.39,10.08 0,15.01l-31.19 29.31c-7.04,6.33 -14.07,6.57 -21.11,0.47 -95.22,-81.84 -202.64,-114.44 -306.31,-19.7 -74.12,67.77 -81.85,175.41 -16.89,253.26 94.05,112.56 270.9,109.04 333.76,-37.52 3.99,-9.61 -3.05,-20.17 -13.37,-20.17z"/>
   <path class="fil0" d="M15739.61 8961.35c3.86,140.21 -109.2,257.23 -252.45,261.12 -143.36,4.08 -262.74,-106.37 -266.63,-246.62 -3.85,-140.21 109.2,-257.23 252.45,-261.12 143.36,-4.08 262.74,106.37 266.63,246.62zm-263.94 201.36c104.32,2.39 190.63,-82.49 193.16,-189.6 2.39,-106.99 -80.16,-195.87 -184.36,-198.16 -104.32,-2.39 -190.63,82.5 -193.16,189.6 -2.39,106.99 80.16,195.87 184.36,198.16z"/>
   <path class="fil0" d="M20739.46 8775.83c-30.96,3.52 -51.6,33.3 -44.33,63.31 5.63,23.68 19,42.68 40.11,57.45 43.86,30.72 82.09,63.32 114.22,98.02 72.01,77.85 33.78,200.97 -71.3,221.6 -78.58,15.48 -137.91,-13.84 -178.02,-87.71 -6.8,-12.43 -3.75,-22.28 8.68,-29.08l22.75 -12.19c10.55,-5.63 18.76,-3.28 24.62,7.03 8.21,14.07 17.83,27.2 28.85,39.63 72.71,80.9 185.76,-26.5 97.33,-110.21 -32.13,-30.25 -65.9,-58.86 -101.79,-85.59 -106.48,-79.5 -56.76,-231.92 81.39,-220.66 49.49,3.98 87.72,27.67 115.16,70.82 6.33,9.61 4.22,17.35 -5.87,22.98l-27.21 15.01c-10.55,5.63 -23.69,1.88 -29.79,-8.44 -18.53,-31.42 -43.39,-45.49 -74.82,-41.98z"/>
   <path class="fil0" d="M9833.45 9198.41c0,5.63 -4.46,10.08 -10.08,10.08l-45.97 0c-5.63,0 -10.08,-4.45 -10.08,-10.08l0 -459.62c0,-5.63 4.46,-10.08 10.08,-10.08l45.97 0c5.63,0 10.08,4.46 10.08,10.08l0 459.62z"/>
   <path class="fil0" d="M10505.64 9003.53l145.42 187.13c9.38,11.96 6.57,17.82 -8.68,17.82l-46.67 0.24c-11.02,0 -19.94,-4.45 -26.74,-13.13l-150.11 -195.34c-11.02,-14.3 -16.41,-12.43 -16.18,5.63l1.88 185.96c0.23,8.91 -7.27,16.41 -16.19,16.41l-34.95 0c-11.49,0 -17.12,-5.63 -17.12,-17.12l0.24 -446.96c0,-10.79 5.39,-16.18 15.95,-15.95 52.07,0.24 104.61,0.7 157.85,0.94 191.62,1.17 193.97,255.37 3.05,258.42 -13.37,0.23 -15.95,5.39 -7.74,15.94zm-102.02 -213.39l-0.47 136.48c0,3.99 3.28,7.27 7.27,7.27l85.37 0.24c48.32,0 87.72,-32.13 87.72,-71.76l0 -7.03c0,-39.87 -38.94,-72.23 -87.25,-72.23l-85.37 -0.24c-4.22,0 -7.27,3.28 -7.27,7.27z"/>
   <path class="fil0" d="M11215.61 9046.92c0,151.72 197.95,156.41 200.3,2.58 1.64,-105.52 1.88,-209.17 0.7,-311.18 0,-6.8 3.28,-10.32 10.08,-10.08l47.85 1.17c7.27,0.24 10.79,3.99 10.55,11.26 -3.05,72.93 -3.05,150.79 0,233.8 5.39,152.43 -35.42,277.18 -220.94,238.72 -87.48,-18.05 -113.99,-85.12 -114.22,-173.06 -0.23,-102.95 0.24,-204.96 1.41,-305.55 0,-3.28 2.82,-6.1 6.1,-6.1l52.07 0.23c3.28,0 6.1,2.82 6.1,6.1 0.23,105.76 0.23,209.64 0,312.12z"/>
   <path class="fil0" d="M12161.75 9003.07l145.65 188.07c8.68,11.02 5.86,16.88 -7.98,17.12l-46.67 0.7c-11.49,0.23 -20.64,-4.22 -27.68,-13.37l-150.58 -196.28c-9.85,-12.9 -14.78,-11.26 -14.78,4.92l0 193c0,7.74 -3.75,11.49 -11.49,11.49l-41.98 0c-6.8,0 -12.43,-5.63 -12.43,-12.43l0.24 -455.64c0,-9.15 4.45,-13.36 13.6,-12.9 91.47,3.75 268.08,-30.01 296.7,94.27 24.39,105.06 -37.06,159 -135.57,165.33 -12.2,0.7 -14.54,6.1 -7.04,15.71zm-101.56 -210.82l-0.94 131.32c0,5.86 4.46,10.32 10.32,10.55l77.64 0.47c51.6,0.24 93.81,-32.13 94.05,-72.23l0 -6.1c0.24,-40.33 -41.28,-73.4 -93.11,-73.63l-77.63 -0.47c-5.63,-0.24 -10.32,4.45 -10.32,10.08z"/>
   <path class="fil0" d="M13847.65 9197.93c0,5.63 -4.69,10.32 -10.32,10.32l-45.97 0c-5.63,0 -10.32,-4.69 -10.32,-10.32l0 -459.15c0,-5.63 4.69,-10.32 10.32,-10.32l45.97 0c5.63,0 10.32,4.69 10.32,10.32l0 459.15z"/>
   <path class="fil0" d="M14445.03 9065.44l-60.51 129.91c-4.22,8.91 -11.26,13.37 -21.11,13.37l-40.81 0c-13.37,0.24 -17.35,-5.86 -11.49,-18.05l213.67 -450.24c7.97,-16.89 31.9,-16.89 39.64,0l209.92 451.18c5.39,11.49 1.88,17.35 -11.02,17.12l-39.17 -0.24c-11.49,-0.23 -19.7,-5.39 -24.63,-15.94l-56.52 -122.88c-5.16,-11.49 -14.08,-17.12 -26.5,-17.12l-151.28 0c-9.38,0 -16.18,4.22 -20.17,12.9zm37.76 -78.32c-2.35,4.93 1.17,10.55 6.8,10.55l108.12 0.24c5.63,0 9.15,-5.63 6.8,-10.55l-53.71 -116.08c-2.81,-5.87 -11.02,-5.87 -13.6,0l-54.41 115.84z"/>
   <path class="fil0" d="M16820.25 8737.37c0,-4.22 3.52,-7.74 7.74,-7.74l182 0c123.37,0 223.52,99.66 223.52,222.54l0 35.18c0,122.88 -100.15,222.54 -223.52,222.54l-182 0c-4.22,0 -7.74,-3.52 -7.74,-7.74l0 -464.78zm63.09 59.09l3.75 345.19c0,7.51 6.1,13.37 13.37,13.37l81.62 -0.94c102.5,-1.17 184.82,-81.84 183.65,-180.56l0 -14.54c-1.17,-98.73 -84.9,-177.99 -187.4,-176.81l-81.62 0.94c-7.51,0 -13.37,6.09 -13.37,13.36z"/>
   <path class="fil0" d="M17787.97 8790.84l0.47 122.41c0,4.45 3.75,8.21 8.21,8.21l204.76 0.24c4.69,0 8.45,3.75 8.21,8.44l-0.94 38.46c-0.23,4.46 -3.75,7.97 -8.21,7.97l-204.06 -0.47c-4.45,0 -8.21,3.75 -8.21,8.21l0.23 160.87c0,4.45 3.75,8.21 8.21,8.21l204.52 0.47c4.45,0 7.97,3.52 8.21,7.97l0.47 38.46c0.23,4.69 -3.52,8.44 -8.21,8.44l-271.6 -0.24c-4.45,0 -8.21,-3.75 -8.21,-8.21l-0.23 -463.61c0,-4.45 3.75,-8.21 8.21,-8.21l273.47 0c4.46,0 8.21,3.75 8.21,8.21l-0.47 38.46c0,4.45 -3.75,8.21 -8.21,8.21l-206.63 -0.7c-4.46,0 -8.21,3.75 -8.21,8.21z"/>
   <path class="fil0" d="M18808.94 9045.74l0 -311.42c0,-3.52 1.88,-5.39 5.63,-5.63l53.24 -0.23c3.99,-0.24 6.1,1.88 6.1,5.86l0 440.62c0,43.85 -14.54,49.25 -43.39,16.41l-267.85 -304.15c-8.21,-9.15 -12.2,-7.74 -12.2,4.45l0 306.03c0,6.33 -5.4,11.72 -11.73,11.49l-45.27 -1.4c-5.63,-0.24 -8.45,-3.05 -8.45,-8.68l0.24 -436.41c0,-43.15 14.31,-48.54 42.92,-16.18l268.08 303.91c8.45,9.61 12.66,7.97 12.66,-4.69z"/>
   <path class="fil0" d="M19512.33 8791.55l0 407.33c0,5.39 -4.45,9.85 -9.85,9.85l-46.21 -0.7c-5.39,0 -9.85,-4.45 -9.85,-9.85l0.47 -405.69c0,-5.63 -4.46,-10.08 -10.08,-10.08l-86.55 1.17c-5.39,0 -9.85,-4.45 -9.85,-9.85l0 -35.41c0,-5.39 4.45,-9.85 9.85,-9.85l257.06 0c5.63,0 10.08,4.45 9.85,10.08l-0.94 36.58c-0.24,5.63 -4.69,9.85 -10.32,9.61l-83.26 -3.05c-5.63,-0.24 -10.32,4.22 -10.32,9.85z"/>
   <path class="fil0" d="M20139.27 9197.7c0,5.39 -4.46,9.85 -9.85,9.85l-47.85 0c-5.39,0 -9.85,-4.45 -9.85,-9.85l0 -458.68c0,-5.39 4.46,-9.85 9.85,-9.85l47.85 0c5.39,0 9.85,4.45 9.85,9.85l0 458.68z"/>
   <path class="fil0" d="M21501.03 8791.31l0.23 406.86c0,5.39 -4.45,9.85 -9.85,9.85l-45.97 0.7c-5.39,0 -9.85,-4.45 -9.85,-9.85l0.24 -407.1c0,-5.39 -4.69,-9.85 -10.08,-9.85l-85.61 2.35c-5.63,0 -10.08,-4.22 -10.08,-9.85l0 -36.11c0,-5.39 4.45,-9.85 9.85,-9.85l255.89 0c5.39,0 9.85,4.45 9.85,9.85l0.24 36.35c0,5.63 -4.69,10.08 -10.32,9.85l-84.2 -3.05c-5.63,-0.23 -10.32,4.22 -10.32,9.85z"/>
   <path class="fil0" d="M22338.34 9052.55l-156.44 0c-7.51,0 -12.9,3.52 -16.19,10.32l-61.68 132.73c-3.52,7.74 -11.26,12.66 -19.93,12.9l-43.63 0.24c-12.2,0.24 -15.72,-5.39 -10.55,-16.41l215.31 -453.29c7.74,-16.18 30.73,-16.18 38.23,0l210.62 452.59c5.39,11.49 1.64,17.35 -11.02,17.12l-42.69 -0.47c-9.61,-0.24 -16.18,-4.45 -20.17,-13.13l-57.7 -127.1c-4.69,-10.55 -12.66,-15.71 -24.16,-15.48zm-136.03 -65.43c-2.35,4.93 1.17,10.55 6.8,10.55l108.36 0.24c5.39,0 9.15,-5.63 6.8,-10.55l-53.95 -115.61c-2.82,-5.63 -11.02,-5.63 -13.6,0l-54.41 115.37z"/>
   <path class="fil0" d="M1980.71 10255.3c-64.73,229.81 -165.58,505.82 -336.8,675.83 -79.28,78.56 -195.14,105.06 -272.3,5.39 -167.23,-215.97 -342.43,-441.56 -526.08,-677 -21.34,-27.2 -15.48,-35.17 17.12,-23.68 11.02,3.99 22.05,8.91 33.31,15.01 366.59,198.39 742.33,-289.61 913.78,-548.26 156.2,-235.68 285.67,-481.2 388.63,-736.1 2.82,-7.04 8.45,-12.66 15.48,-15.24 13.84,-5.16 25.33,-2.58 34.48,7.97 4.92,5.86 6.57,12.43 5.16,19.93 -77.63,412.96 -155.27,857.8 -272.77,1276.16z"/>
  </g>
 </g>
</svg>
